<?xml version="1.0" encoding="utf-8"?>
<!-- Generator: Adobe Illustrator 17.1.0, SVG Export Plug-In . SVG Version: 6.00 Build 0)  -->
<!DOCTYPE svg PUBLIC "-//W3C//DTD SVG 1.1//EN" "http://www.w3.org/Graphics/SVG/1.1/DTD/svg11.dtd">
<svg version="1.1" id="Layer_1" xmlns="http://www.w3.org/2000/svg" xmlns:xlink="http://www.w3.org/1999/xlink" x="0px" y="0px"
	 viewBox="0 0 207.3 176" enable-background="new 0 0 207.3 176" xml:space="preserve">
<path fill="#FFFFFF" d="M207.3,164c0,6.6-5.4,12-12,12H12c-6.6,0-12-5.4-12-12V12C0,5.4,5.4,0,12,0h183.3c6.6,0,12,5.4,12,12V164z"
	/>
<g>
	<g>
		<g>
			<path fill="#221F72" d="M15.5,111.4c-5,0-9,4.1-9,9v40.2c0,5,4.1,9,9,9h177.2c5,0,9-4.1,9-9v-40.2c0-5-4.1-9-9-9H15.5z"/>
		</g>
	</g>
	<g>
		<path fill="none" d="M48,124.6v-13.2H15.2c-3.9,0-7,3.2-7,7v6.2h76.6v41h107.6c3.9,0,7-3.2,7-7v-34.1H48z"/>
		
			<radialGradient id="SVGID_1_" cx="179.95" cy="-193.5092" r="35.4646" gradientTransform="matrix(2.5088 0 0 0.2807 -306.2644 169.2388)" gradientUnits="userSpaceOnUse">
			<stop  offset="0" style="stop-color:#65609B"/>
			<stop  offset="1" style="stop-color:#221F72"/>
		</radialGradient>
		<path fill="url(#SVGID_1_)" d="M199.4,124.6v-6.1c0-3.9-3.2-7-7-7H48v13.2H199.4z"/>
		
			<radialGradient id="SVGID_2_" cx="238.7646" cy="393.3565" r="37.5743" gradientTransform="matrix(2.0397 0 0 1.1491 -478.831 -284.1255)" gradientUnits="userSpaceOnUse">
			<stop  offset="0" style="stop-color:#5C5795"/>
			<stop  offset="1" style="stop-color:#221F72"/>
		</radialGradient>
		<path fill="url(#SVGID_2_)" d="M8.2,124.7v33.9c0,3.9,3.2,7,7,7h69.6v-41H8.2z"/>
	</g>
</g>
<g>
	<g>
		<path fill="#B15C12" stroke="#B15C12" stroke-width="0.5671" d="M11.9,46.2c1.9,0,3.4-0.5,4.4-1.5c1-1,1.6-2.4,1.6-4.2v-9.3h11.2
			v9.3c0,1.8,0.5,3.2,1.6,4.2c1.1,1,2.5,1.5,4.5,1.5c2,0,3.4-0.5,4.5-1.4c1-0.9,1.5-2.3,1.5-4.1V13.4c0-1.8-0.5-3.2-1.6-4.2
			c-1.1-1-2.6-1.5-4.5-1.5c-2,0-3.4,0.5-4.5,1.4c-1,0.9-1.5,2.3-1.5,4.1v7.8H17.9v-7.8c0-1.8-0.5-3.2-1.5-4.1
			c-1-0.9-2.5-1.4-4.5-1.4c-1.9,0-3.4,0.5-4.4,1.5c-1.1,1-1.6,2.4-1.6,4.2v27.4c0,1.8,0.5,3.2,1.5,4.1C8.4,45.7,9.9,46.2,11.9,46.2z
			"/>
		<path fill="#B15C12" stroke="#B15C12" stroke-width="0.5671" d="M59.8,46.4c1.2,0,2.3-0.3,3.1-0.9c0.9-0.6,1.5-1.4,1.9-2.5
			l0.8-2.2h12l0.8,2.2c0.4,1.1,1,2,1.9,2.5c0.9,0.6,1.9,0.9,3.2,0.9c1.6,0,2.9-0.5,3.9-1.4c1-0.9,1.5-2.2,1.5-3.7
			c0-0.5,0-0.9-0.1-1.3c-0.1-0.4-0.2-0.8-0.3-1l-9.2-25.7C78.7,11,77.9,9.5,77,8.8c-0.9-0.7-2.1-1.1-3.6-1.1h-3.5
			c-1.5,0-2.8,0.4-3.7,1.2c-0.9,0.8-1.7,2.2-2.5,4.3l-9.1,25.7c-0.1,0.3-0.2,0.6-0.2,1c0,0.4-0.1,0.8-0.1,1.3c0,1.6,0.5,2.8,1.5,3.8
			C56.8,45.9,58.1,46.4,59.8,46.4z M71.7,19.9l3.7,13h-7.6L71.7,19.9z"/>
		<path fill="#B15C12" stroke="#B15C12" stroke-width="0.5671" d="M108.2,46.2h43.3c2,0,3.4-0.5,4.5-1.4c1-0.9,1.5-2.3,1.5-4.1V13.4
			c0-1.8-0.5-3.2-1.6-4.2c-1.1-1-2.6-1.5-4.5-1.5c-2,0-3.5,0.5-4.5,1.4c-1,0.9-1.5,2.3-1.5,4.1v23.1h-9.6V13.4v-0.2
			c0-1.8-0.5-3.2-1.5-4.1c-1-0.9-2.5-1.4-4.5-1.4c0,0,0,0,0,0c0,0,0,0,0,0c-2,0-3.4,0.5-4.5,1.4c-1,0.9-1.5,2.3-1.5,4.1v23.1h-9.6
			V13.2c0-1.8-0.5-3.2-1.5-4.1c-1-0.9-2.5-1.4-4.5-1.4c-1.9,0-3.4,0.5-4.4,1.5c-1.1,1-1.6,2.4-1.6,4.2v27.4c0,1.8,0.5,3.2,1.5,4.1
			C104.7,45.7,106.2,46.2,108.2,46.2z"/>
		<path fill="#B15C12" stroke="#B15C12" stroke-width="0.5671" d="M176.9,45.7h18.4c1.7,0,2.9-0.4,3.8-1.1c0.9-0.8,1.3-1.9,1.3-3.3
			c0-1.5-0.5-2.7-1.4-3.5c-0.9-0.8-2.2-1.2-3.9-1.2h-13.4v-5.8h10.5c1.5,0,2.7-0.4,3.5-1.1c0.8-0.7,1.2-1.8,1.2-3.3
			c0-1.5-0.4-2.5-1.2-3.2c-0.8-0.7-2-1-3.7-1h-10.3v-5h12.9c1.7,0,2.9-0.4,3.8-1.1c0.9-0.8,1.3-1.8,1.3-3.3c0-1.5-0.4-2.6-1.3-3.4
			c-0.9-0.8-2.2-1.2-3.9-1.2h-17.5c-2.7,0-4.6,0.5-5.7,1.5c-1.1,1-1.6,2.8-1.6,5.4v23.7c0,2.6,0.5,4.4,1.6,5.4
			C172.3,45.2,174.2,45.7,176.9,45.7z"/>
		<path fill="#B15C12" stroke="#B15C12" stroke-width="0.5671" d="M39.1,61c-0.9-1.8-2.2-3.3-4-4.5c-1.4-0.9-3.1-1.6-5.1-2
			c-2-0.4-4.8-0.6-8.3-0.6h-8.4c-2.8,0-4.7,0.5-5.8,1.6c-1.1,1-1.6,2.9-1.6,5.5v26.1c0,1.8,0.5,3.3,1.6,4.3c1.1,1,2.6,1.5,4.6,1.5
			c2,0,3.5-0.5,4.6-1.4c1-1,1.6-2.4,1.6-4.2v-6.7h6.6c5.2,0,9.1-1.1,11.7-3.3c2.6-2.2,3.9-5.5,3.9-10C40.4,64.9,40,62.8,39.1,61z
			 M27.4,70.4c-0.9,0.6-2.6,0.9-5.2,0.9h-4v-7.8h4c2.6,0,4.4,0.3,5.2,0.9c0.8,0.6,1.3,1.6,1.3,3.1C28.7,68.8,28.2,69.8,27.4,70.4z"
			/>
		<path fill="#B15C12" stroke="#B15C12" stroke-width="0.5671" d="M74.6,85.4l-9.4-26.3c-0.8-2.3-1.6-3.8-2.5-4.5
			c-0.9-0.8-2.1-1.1-3.7-1.1h-3.6c-1.6,0-2.8,0.4-3.7,1.2c-0.9,0.8-1.8,2.3-2.5,4.4l-9.3,26.3c-0.1,0.3-0.2,0.6-0.2,1
			c0,0.4-0.1,0.8-0.1,1.4c0,1.6,0.5,2.9,1.5,3.9c1,1,2.4,1.4,4.1,1.4c1.3,0,2.3-0.3,3.2-0.9c0.9-0.6,1.5-1.5,2-2.6l0.9-2.2h12.3
			l0.9,2.2c0.4,1.1,1.1,2,2,2.6c0.9,0.6,2,0.9,3.3,0.9c1.7,0,3-0.5,4-1.4c1-1,1.5-2.2,1.5-3.8c0-0.5,0-0.9-0.1-1.3
			C74.8,86,74.7,85.7,74.6,85.4z M53.4,79.2l3.9-13.3l3.8,13.3H53.4z"/>
		<path fill="#B15C12" stroke="#B15C12" stroke-width="0.5671" d="M199,58.4c-3.6-3.6-8.4-5.4-14.6-5.4c-6.2,0-11,1.8-14.6,5.4
			c-3.6,3.6-5.4,8.6-5.4,14.8c0,6.2,1.8,11.2,5.4,14.8c3.6,3.6,8.4,5.4,14.6,5.4c6.2,0,11-1.8,14.6-5.4c3.6-3.6,5.3-8.6,5.3-14.8
			C204.3,66.9,202.5,62,199,58.4z M190.1,81.2c-1.2,1.7-3.1,2.6-5.7,2.6c-2.6,0-4.5-0.9-5.7-2.6c-1.2-1.7-1.8-4.4-1.8-8
			c0-3.7,0.6-6.3,1.8-8c1.2-1.7,3.1-2.6,5.7-2.6c2.6,0,4.5,0.9,5.7,2.6c1.2,1.7,1.8,4.4,1.8,8C191.9,76.8,191.3,79.5,190.1,81.2z"/>
		<path fill="#B15C12" stroke="#B15C12" stroke-width="0.5671" d="M116.2,84.3V58.9c0-3.3-2.3-5.6-5.5-5.6H92
			c-3.3,0-5.6,2.3-5.6,5.6v8.4c0,6.5-1.8,15.2-2.9,17c-3,0.2-5.1,2.5-5.1,5.6v7.4c0,3.3,2.2,5.6,5.6,5.6c3.3,0,5.5-2.2,5.5-5.6v-3.1
			H110v3.1c0,3.3,2.2,5.6,5.6,5.6c3.3,0,5.5-2.2,5.5-5.6v-7.4C121.1,86.7,119.1,84.5,116.2,84.3z M105.1,84.2H95
			c1.4-4.4,2.6-11.8,2.6-17.5v-3.6h7.5V84.2z"/>
		<path fill="#B15C12" stroke="#B15C12" stroke-width="0.5671" d="M155.7,53c-1.4,0-3.3,0.7-4.6,2.3l-15.4,19.5V58.5
			c0-3.3-2.2-5.6-5.5-5.6c-3.3,0-5.5,2.2-5.5,5.6v30.3c0,3.3,2.2,5.6,5.5,5.6c1.4,0,3.3-0.7,4.6-2.3l15.4-19.3v16
			c0,3.3,2.2,5.6,5.5,5.6c3.3,0,5.5-2.2,5.5-5.6V58.5C161.2,55.2,159,53,155.7,53z"/>
	</g>
	<g>
		<g>
			<defs>
				<path id="SVGID_3_" d="M9.9,44.6c1.9,0,3.4-0.5,4.4-1.5c1-1,1.6-2.4,1.6-4.2v-9.3h11.2v9.3c0,1.8,0.5,3.2,1.6,4.2
					c1.1,1,2.5,1.5,4.5,1.5c2,0,3.4-0.5,4.5-1.4c1-0.9,1.5-2.3,1.5-4.1V11.8c0-1.8-0.5-3.2-1.6-4.2c-1.1-1-2.6-1.5-4.5-1.5
					c-2,0-3.4,0.5-4.5,1.4c-1,0.9-1.5,2.3-1.5,4.1v7.8H15.9v-7.8c0-1.8-0.5-3.2-1.5-4.1c-1-0.9-2.5-1.4-4.5-1.4
					C8,6.1,6.5,6.6,5.4,7.6c-1.1,1-1.6,2.4-1.6,4.2v27.4c0,1.8,0.5,3.2,1.5,4.1C6.4,44.2,7.9,44.6,9.9,44.6z"/>
			</defs>
			<use xlink:href="#SVGID_3_"  overflow="visible" fill="#F08B1D"/>
			<clipPath id="SVGID_4_">
				<use xlink:href="#SVGID_3_"  overflow="visible"/>
			</clipPath>
			<g clip-path="url(#SVGID_4_)">
				
					<radialGradient id="SVGID_5_" cx="34.0454" cy="-169.9525" r="10.0988" gradientTransform="matrix(1 0 0 0.5428 0 101.5657)" gradientUnits="userSpaceOnUse">
					<stop  offset="0" style="stop-color:#FFFFFF"/>
					<stop  offset="1" style="stop-color:#F08B1D"/>
				</radialGradient>
				<rect x="23.9" y="3.8" fill="url(#SVGID_5_)" width="20.2" height="11"/>
				
					<radialGradient id="SVGID_6_" cx="11.0889" cy="-169.9525" r="10.0991" gradientTransform="matrix(1 0 0 0.5428 0 101.5657)" gradientUnits="userSpaceOnUse">
					<stop  offset="0" style="stop-color:#FFFFFF"/>
					<stop  offset="1" style="stop-color:#F08B1D"/>
				</radialGradient>
				<rect x="1" y="3.8" fill="url(#SVGID_6_)" width="20.2" height="11"/>
			</g>
			<use xlink:href="#SVGID_3_"  overflow="visible" fill="none" stroke="#FFFFFF" stroke-width="0.8507"/>
		</g>
		<g>
			<defs>
				<path id="SVGID_7_" d="M57.7,44.8c1.2,0,2.3-0.3,3.1-0.9c0.9-0.6,1.5-1.4,1.9-2.5l0.8-2.2h12l0.8,2.2c0.4,1.1,1,2,1.9,2.5
					c0.9,0.6,1.9,0.9,3.2,0.9c1.6,0,2.9-0.5,3.9-1.4c1-0.9,1.5-2.2,1.5-3.7c0-0.5,0-0.9-0.1-1.3c-0.1-0.4-0.2-0.8-0.3-1l-9.2-25.7
					c-0.8-2.2-1.6-3.7-2.5-4.4c-0.9-0.7-2.1-1.1-3.6-1.1h-3.5c-1.5,0-2.8,0.4-3.7,1.2c-0.9,0.8-1.7,2.2-2.5,4.3l-9.1,25.7
					c-0.1,0.3-0.2,0.6-0.2,1c0,0.4-0.1,0.8-0.1,1.3c0,1.6,0.5,2.8,1.5,3.8C54.7,44.3,56.1,44.8,57.7,44.8z M69.7,18.3l3.7,13h-7.6
					L69.7,18.3z"/>
			</defs>
			<use xlink:href="#SVGID_7_"  overflow="visible" fill="#F08B1D"/>
			<clipPath id="SVGID_8_">
				<use xlink:href="#SVGID_7_"  overflow="visible"/>
			</clipPath>
			
				<radialGradient id="SVGID_9_" cx="71.6616" cy="-170.9708" r="10.0992" gradientTransform="matrix(1 0 0 0.5428 0 101.5657)" gradientUnits="userSpaceOnUse">
				<stop  offset="0" style="stop-color:#FFFFFF"/>
				<stop  offset="1" style="stop-color:#F08B1D"/>
			</radialGradient>
			<rect x="61.6" y="3.3" clip-path="url(#SVGID_8_)" fill="url(#SVGID_9_)" width="20.2" height="11"/>
			<use xlink:href="#SVGID_7_"  overflow="visible" fill="none" stroke="#FFFFFF" stroke-width="0.8507"/>
		</g>
		<g>
			<defs>
				<path id="SVGID_10_" d="M106.2,44.6h43.3c2,0,3.4-0.5,4.5-1.4c1-0.9,1.5-2.3,1.5-4.1V11.8c0-1.8-0.5-3.2-1.6-4.2
					c-1.1-1-2.6-1.5-4.5-1.5c-2,0-3.5,0.5-4.5,1.4c-1,0.9-1.5,2.3-1.5,4.1v23.1h-9.6V11.8v-0.2c0-1.8-0.5-3.2-1.5-4.1
					c-1-0.9-2.5-1.4-4.5-1.4c0,0,0,0,0,0c0,0,0,0,0,0c-2,0-3.4,0.5-4.5,1.4c-1,0.9-1.5,2.3-1.5,4.1v23.1h-9.6V11.6
					c0-1.8-0.5-3.2-1.5-4.1c-1-0.9-2.5-1.4-4.5-1.4c-1.9,0-3.4,0.5-4.4,1.5c-1.1,1-1.6,2.4-1.6,4.2v27.4c0,1.8,0.5,3.2,1.5,4.1
					C102.7,44.2,104.2,44.6,106.2,44.6z"/>
			</defs>
			<use xlink:href="#SVGID_10_"  overflow="visible" fill="#F08B1D"/>
			<clipPath id="SVGID_11_">
				<use xlink:href="#SVGID_10_"  overflow="visible"/>
			</clipPath>
			<g clip-path="url(#SVGID_11_)">
				
					<radialGradient id="SVGID_12_" cx="150.413" cy="-169.9525" r="10.0986" gradientTransform="matrix(1 0 0 0.5428 0 101.5657)" gradientUnits="userSpaceOnUse">
					<stop  offset="0" style="stop-color:#FFFFFF"/>
					<stop  offset="1" style="stop-color:#F08B1D"/>
				</radialGradient>
				<rect x="140.3" y="3.8" fill="url(#SVGID_12_)" width="20.2" height="11"/>
				
					<radialGradient id="SVGID_13_" cx="128.457" cy="-169.9525" r="10.099" gradientTransform="matrix(1 0 0 0.5428 0 101.5657)" gradientUnits="userSpaceOnUse">
					<stop  offset="0" style="stop-color:#FFFFFF"/>
					<stop  offset="1" style="stop-color:#F08B1D"/>
				</radialGradient>
				<rect x="118.4" y="3.8" fill="url(#SVGID_13_)" width="20.2" height="11"/>
				
					<radialGradient id="SVGID_14_" cx="106.8466" cy="-169.9525" r="10.0986" gradientTransform="matrix(1 0 0 0.5428 0 101.5657)" gradientUnits="userSpaceOnUse">
					<stop  offset="0" style="stop-color:#FFFFFF"/>
					<stop  offset="1" style="stop-color:#F08B1D"/>
				</radialGradient>
				<rect x="96.7" y="3.8" fill="url(#SVGID_14_)" width="20.2" height="11"/>
			</g>
			<use xlink:href="#SVGID_10_"  overflow="visible" fill="none" stroke="#FFFFFF" stroke-width="0.8507"/>
		</g>
		<g>
			<defs>
				<path id="SVGID_15_" d="M174.9,44.2h18.4c1.7,0,2.9-0.4,3.8-1.1c0.9-0.8,1.3-1.9,1.3-3.3c0-1.5-0.5-2.7-1.4-3.5
					c-0.9-0.8-2.2-1.2-3.9-1.2h-13.4v-5.8h10.5c1.5,0,2.7-0.4,3.5-1.1c0.8-0.7,1.2-1.8,1.2-3.3c0-1.5-0.4-2.5-1.2-3.2
					c-0.8-0.7-2-1-3.7-1h-10.3v-5h12.9c1.7,0,2.9-0.4,3.8-1.1c0.9-0.8,1.3-1.8,1.3-3.3c0-1.5-0.4-2.6-1.3-3.4
					c-0.9-0.8-2.2-1.2-3.9-1.2h-17.5c-2.7,0-4.6,0.5-5.7,1.5c-1.1,1-1.6,2.8-1.6,5.4v23.7c0,2.6,0.5,4.4,1.6,5.4
					C170.3,43.7,172.1,44.2,174.9,44.2z"/>
			</defs>
			<use xlink:href="#SVGID_15_"  overflow="visible" fill="#F08B1D"/>
			<clipPath id="SVGID_16_">
				<use xlink:href="#SVGID_15_"  overflow="visible"/>
			</clipPath>
			
				<radialGradient id="SVGID_17_" cx="191.707" cy="-169.1276" r="10.0995" gradientTransform="matrix(1 0 0 0.5428 0 101.5657)" gradientUnits="userSpaceOnUse">
				<stop  offset="0" style="stop-color:#FFFFFF"/>
				<stop  offset="1" style="stop-color:#F08B1D"/>
			</radialGradient>
			<rect x="181.6" y="4.3" clip-path="url(#SVGID_16_)" fill="url(#SVGID_17_)" width="20.2" height="11"/>
			
				<radialGradient id="SVGID_18_" cx="191.707" cy="-142.7121" r="10.099" gradientTransform="matrix(1 0 0 0.5428 0 101.5657)" gradientUnits="userSpaceOnUse">
				<stop  offset="0" style="stop-color:#FFFFFF"/>
				<stop  offset="1" style="stop-color:#F08B1D"/>
			</radialGradient>
			<rect x="181.6" y="18.6" clip-path="url(#SVGID_16_)" fill="url(#SVGID_18_)" width="20.2" height="11"/>
			
				<radialGradient id="SVGID_19_" cx="192.4648" cy="-119.4063" r="10.1" gradientTransform="matrix(1 0 0 0.5428 0 101.5657)" gradientUnits="userSpaceOnUse">
				<stop  offset="0" style="stop-color:#FFFFFF"/>
				<stop  offset="1" style="stop-color:#F08B1D"/>
			</radialGradient>
			<rect x="182.4" y="31.3" clip-path="url(#SVGID_16_)" fill="url(#SVGID_19_)" width="20.2" height="11"/>
			<use xlink:href="#SVGID_15_"  overflow="visible" fill="none" stroke="#FFFFFF" stroke-width="0.8507"/>
		</g>
		<g>
			<defs>
				<path id="SVGID_20_" d="M37,59.5c-0.9-1.8-2.2-3.3-4-4.5c-1.4-0.9-3.1-1.6-5.1-2c-2-0.4-4.8-0.6-8.3-0.6h-8.4
					c-2.8,0-4.7,0.5-5.8,1.6c-1.1,1-1.6,2.9-1.6,5.5v26.1c0,1.8,0.5,3.3,1.6,4.3c1.1,1,2.6,1.5,4.6,1.5c2,0,3.5-0.5,4.6-1.4
					c1-1,1.6-2.4,1.6-4.2v-6.7h6.6c5.2,0,9.1-1.1,11.7-3.3c2.6-2.2,3.9-5.5,3.9-10C38.4,63.3,37.9,61.2,37,59.5z M25.3,68.8
					c-0.9,0.6-2.6,0.9-5.2,0.9h-4v-7.8h4c2.6,0,4.4,0.3,5.2,0.9c0.8,0.6,1.3,1.6,1.3,3.1C26.6,67.2,26.2,68.2,25.3,68.8z"/>
			</defs>
			<use xlink:href="#SVGID_20_"  overflow="visible" fill="#F08B1D"/>
			<clipPath id="SVGID_21_">
				<use xlink:href="#SVGID_20_"  overflow="visible"/>
			</clipPath>
			
				<radialGradient id="SVGID_22_" cx="27.876" cy="-86.8961" r="10.1" gradientTransform="matrix(1 0 0 0.5428 0 101.5657)" gradientUnits="userSpaceOnUse">
				<stop  offset="0" style="stop-color:#FFFFFF"/>
				<stop  offset="1" style="stop-color:#F08B1D"/>
			</radialGradient>
			<rect x="17.8" y="48.9" clip-path="url(#SVGID_21_)" fill="url(#SVGID_22_)" width="20.2" height="11"/>
			<use xlink:href="#SVGID_20_"  overflow="visible" fill="none" stroke="#FFFFFF" stroke-width="0.8507"/>
		</g>
		<g>
			<defs>
				<path id="SVGID_23_" d="M72.6,83.8l-9.4-26.3c-0.8-2.3-1.6-3.8-2.5-4.5c-0.9-0.8-2.1-1.1-3.7-1.1h-3.6c-1.6,0-2.8,0.4-3.7,1.2
					c-0.9,0.8-1.8,2.3-2.5,4.4l-9.3,26.3c-0.1,0.3-0.2,0.6-0.2,1c0,0.4-0.1,0.8-0.1,1.4c0,1.6,0.5,2.9,1.5,3.9c1,1,2.4,1.4,4.1,1.4
					c1.3,0,2.3-0.3,3.2-0.9c0.9-0.6,1.5-1.5,2-2.6l0.9-2.2h12.3l0.9,2.2c0.4,1.1,1.1,2,2,2.6c0.9,0.6,2,0.9,3.3,0.9
					c1.7,0,3-0.5,4-1.4c1-1,1.5-2.2,1.5-3.8c0-0.5,0-0.9-0.1-1.3C72.8,84.5,72.7,84.1,72.6,83.8z M51.3,77.7l3.9-13.3L59,77.7H51.3z
					"/>
			</defs>
			<use xlink:href="#SVGID_23_"  overflow="visible" fill="#F08B1D"/>
			<clipPath id="SVGID_24_">
				<use xlink:href="#SVGID_23_"  overflow="visible"/>
			</clipPath>
			
				<radialGradient id="SVGID_25_" cx="57.4126" cy="-86.8961" r="10.0997" gradientTransform="matrix(1 0 0 0.5428 0 101.5657)" gradientUnits="userSpaceOnUse">
				<stop  offset="0" style="stop-color:#FFFFFF"/>
				<stop  offset="1" style="stop-color:#F08B1D"/>
			</radialGradient>
			<rect x="47.3" y="48.9" clip-path="url(#SVGID_24_)" fill="url(#SVGID_25_)" width="20.2" height="11"/>
			<use xlink:href="#SVGID_23_"  overflow="visible" fill="none" stroke="#FFFFFF" stroke-width="0.8507"/>
		</g>
		<g>
			<defs>
				<path id="SVGID_26_" d="M196.9,56.8c-3.6-3.6-8.4-5.4-14.6-5.4c-6.2,0-11,1.8-14.6,5.4c-3.6,3.6-5.4,8.6-5.4,14.8
					c0,6.2,1.8,11.2,5.4,14.8c3.6,3.6,8.4,5.4,14.6,5.4c6.2,0,11-1.8,14.6-5.4c3.6-3.6,5.3-8.6,5.3-14.8
					C202.3,65.4,200.5,60.4,196.9,56.8z M188,79.7c-1.2,1.7-3.1,2.6-5.7,2.6c-2.6,0-4.5-0.9-5.7-2.6c-1.2-1.7-1.8-4.4-1.8-8
					c0-3.7,0.6-6.3,1.8-8c1.2-1.7,3.1-2.6,5.7-2.6c2.6,0,4.5,0.9,5.7,2.6c1.2,1.7,1.8,4.4,1.8,8C189.8,75.3,189.2,77.9,188,79.7z"/>
			</defs>
			<use xlink:href="#SVGID_26_"  overflow="visible" fill="#F08B1D"/>
			<clipPath id="SVGID_27_">
				<use xlink:href="#SVGID_26_"  overflow="visible"/>
			</clipPath>
			
				<radialGradient id="SVGID_28_" cx="189.8477" cy="-86.8961" r="10.1" gradientTransform="matrix(1 0 0 0.5428 0 101.5657)" gradientUnits="userSpaceOnUse">
				<stop  offset="0" style="stop-color:#FFFFFF"/>
				<stop  offset="1" style="stop-color:#F08B1D"/>
			</radialGradient>
			<rect x="179.7" y="48.9" clip-path="url(#SVGID_27_)" fill="url(#SVGID_28_)" width="20.2" height="11"/>
			<use xlink:href="#SVGID_26_"  overflow="visible" fill="none" stroke="#FFFFFF" stroke-width="0.8507"/>
		</g>
		<g>
			<defs>
				<path id="SVGID_29_" d="M114.1,82.7V57.3c0-3.3-2.3-5.6-5.5-5.6H89.9c-3.3,0-5.6,2.3-5.6,5.6v8.4c0,6.5-1.8,15.2-2.9,17
					c-3,0.2-5.1,2.5-5.1,5.6v7.4c0,3.3,2.2,5.6,5.6,5.6c3.3,0,5.5-2.2,5.5-5.6v-3.1H108v3.1c0,3.3,2.2,5.6,5.6,5.6
					c3.3,0,5.5-2.2,5.5-5.6v-7.4C119.1,85.2,117.1,83,114.1,82.7z M103,82.7H92.9c1.4-4.4,2.6-11.8,2.6-17.5v-3.6h7.5V82.7z"/>
			</defs>
			<use xlink:href="#SVGID_29_"  overflow="visible" fill="#F08B1D"/>
			<clipPath id="SVGID_30_">
				<use xlink:href="#SVGID_29_"  overflow="visible"/>
			</clipPath>
			
				<radialGradient id="SVGID_31_" cx="106.5312" cy="-88.7384" r="10.1" gradientTransform="matrix(1 0 0 0.5428 0 101.5657)" gradientUnits="userSpaceOnUse">
				<stop  offset="0" style="stop-color:#FFFFFF"/>
				<stop  offset="1" style="stop-color:#F08B1D"/>
			</radialGradient>
			<rect x="96.4" y="47.9" clip-path="url(#SVGID_30_)" fill="url(#SVGID_31_)" width="20.2" height="11"/>
			<use xlink:href="#SVGID_29_"  overflow="visible" fill="none" stroke="#FFFFFF" stroke-width="0.8507"/>
		</g>
		<g>
			<defs>
				<path id="SVGID_32_" d="M153.6,51.4c-1.4,0-3.3,0.7-4.6,2.3l-15.4,19.5V57c0-3.3-2.2-5.6-5.5-5.6c-3.3,0-5.5,2.2-5.5,5.6v30.3
					c0,3.3,2.2,5.6,5.5,5.6c1.4,0,3.3-0.7,4.6-2.3l15.4-19.3v16c0,3.3,2.2,5.6,5.5,5.6c3.3,0,5.5-2.2,5.5-5.6V57
					C159.2,53.6,156.9,51.4,153.6,51.4z"/>
			</defs>
			<use xlink:href="#SVGID_32_"  overflow="visible" fill="#F08B1D"/>
			<clipPath id="SVGID_33_">
				<use xlink:href="#SVGID_32_"  overflow="visible"/>
			</clipPath>
			
				<radialGradient id="SVGID_34_" cx="254.6662" cy="-88.7384" r="10.0998" gradientTransform="matrix(0.8869 0 0 0.5428 -96.3498 101.5657)" gradientUnits="userSpaceOnUse">
				<stop  offset="0" style="stop-color:#FFFFFF"/>
				<stop  offset="1" style="stop-color:#F08B1D"/>
			</radialGradient>
			<rect x="120.6" y="47.9" clip-path="url(#SVGID_33_)" fill="url(#SVGID_34_)" width="17.9" height="11"/>
			
				<radialGradient id="SVGID_35_" cx="281.6122" cy="-88.7384" r="10.0998" gradientTransform="matrix(0.8869 0 0 0.5428 -96.3498 101.5657)" gradientUnits="userSpaceOnUse">
				<stop  offset="0" style="stop-color:#FFFFFF"/>
				<stop  offset="1" style="stop-color:#F08B1D"/>
			</radialGradient>
			<rect x="144.5" y="47.9" clip-path="url(#SVGID_33_)" fill="url(#SVGID_35_)" width="17.9" height="11"/>
			<use xlink:href="#SVGID_32_"  overflow="visible" fill="none" stroke="#FFFFFF" stroke-width="0.8507"/>
		</g>
	</g>
</g>
<g>
	<path fill="#FFFFFF" d="M54.6,120.2c0-1.1,0.7-1.7,1.8-1.7h4.3c2.3,0,4.2,1.6,4.2,4c0,1.6-0.7,2.6-2.1,3.3v0
		c1.9,0.3,3.4,1.9,3.4,3.8c0,3.2-2.1,4.9-5.2,4.9h-4.6c-1,0-1.8-0.7-1.8-1.7V120.2z M58,124.9h1.8c1.1,0,1.8-0.7,1.8-1.8
		c0-1.1-0.8-1.6-1.8-1.6H58V124.9z M58,131.6h2.7c1.2,0,2.1-0.7,2.1-2c0-1.1-0.8-1.8-2.4-1.8H58V131.6z"/>
	<path fill="#FFFFFF" d="M75.4,125.9c-0.8,0-1.5-0.6-2.6-0.6c-1.8,0-2.7,1.6-2.7,3.3c0,1.6,1,3.3,2.7,3.3c0.8,0,2-0.7,2.4-0.7
		c0.8,0,1.4,0.7,1.4,1.4c0,1.7-2.8,2.2-4,2.2c-3.5,0-5.8-2.9-5.8-6.2c0-3.3,2.4-6.3,5.8-6.3c1.3,0,4,0.5,4,2
		C76.7,125,76.2,125.9,75.4,125.9z"/>
	<path fill="#FFFFFF" d="M80.4,129.7c0.2,1.6,1.6,2.3,3.1,2.3c1.7,0,2.8-1.3,3.7-1.3c0.7,0,1.3,0.7,1.3,1.4c0,1.4-2.9,2.7-5.3,2.7
		c-3.6,0-6.1-2.7-6.1-6.2c0-3.3,2.4-6.3,5.8-6.3c3.5,0,5.8,3.2,5.8,5.9c0,1-0.4,1.4-1.4,1.4H80.4z M85.5,127.5
		c-0.2-1.4-1.1-2.5-2.6-2.5c-1.4,0-2.4,1.1-2.6,2.5H85.5z"/>
	<path fill="#FFFFFF" d="M101.2,134.8c-2.9,0-4.6-1.7-5.4-4c-0.4-1.1-0.4-2.4-0.4-3.8c0-2.4,0.7-5.1,1.8-6.2c0.9-0.9,1.9-1.8,6-2.1
		c0.5,0,1-0.5,1.5-0.5c0.9,0,1.5,0.7,1.5,1.4c0,0.9-0.8,1.9-2.5,2c-1.4,0.1-3.2,0.3-4.4,0.9c-0.5,0.3-1.1,1.1-1.2,1.7l0.1,0.1
		c0.5-0.7,1.9-1.4,3.2-1.4c3.2,0,5.6,2.9,5.6,6C107,132.1,104.7,134.8,101.2,134.8z M101.2,125.6c-1.8,0-2.6,1.7-2.6,3.2
		s0.8,3.1,2.6,3.1c1.8,0,2.6-1.6,2.6-3.1S103,125.6,101.2,125.6z"/>
	<path fill="#FFFFFF" d="M107.6,124.7c-0.1-0.2-0.2-0.5-0.2-0.8c0-0.8,0.9-1.4,1.5-1.4c0.8,0,1.3,0.4,1.6,1.1l2.2,6.1l2.4-6.1
		c0.3-0.7,0.8-1.1,1.6-1.1c0.7,0,1.5,0.6,1.5,1.4c0,0.3,0,0.6-0.2,0.8l-5.4,13.5c-0.3,0.7-0.8,1.3-1.5,1.3c-1.1,0-1.7-0.7-1.7-1.4
		c0-0.3,0.1-0.7,0.2-0.9l1.4-3.5L107.6,124.7z"/>
	<path fill="#FFFFFF" d="M130.2,138c-0.9,0-1.6-0.7-1.6-1.8v-1.6h-6.9v1.6c0,1.1-0.7,1.8-1.6,1.8c-0.9,0-1.6-0.7-1.6-1.8v-2.7
		c0-1.1,0.7-1.8,1.6-1.8h0.2c0.6-2.1,0.8-4.5,0.8-7.3c0-1.2,0.7-1.8,1.6-1.8h5.8c0.9,0,1.6,0.7,1.6,1.8v7.3h0.2
		c0.9,0,1.6,0.7,1.6,1.8v2.7C131.8,137.3,131.1,138,130.2,138z M126.9,125.2h-2.8c-0.1,2.5-0.3,4.8-0.8,6.7h3.6V125.2z"/>
	<path fill="#FFFFFF" d="M135.3,129.7c0.2,1.6,1.6,2.3,3.1,2.3c1.7,0,2.8-1.3,3.7-1.3c0.7,0,1.3,0.7,1.3,1.4c0,1.4-2.9,2.7-5.3,2.7
		c-3.6,0-6.1-2.7-6.1-6.2c0-3.3,2.4-6.3,5.8-6.3c3.5,0,5.8,3.2,5.8,5.9c0,1-0.4,1.4-1.4,1.4H135.3z M140.3,127.5
		c-0.2-1.4-1.1-2.5-2.6-2.5c-1.4,0-2.4,1.1-2.6,2.5H140.3z"/>
	<path fill="#FFFFFF" d="M147.5,125.4h-2.3c-0.9,0-1.4-0.5-1.4-1.4c0-0.8,0.6-1.4,1.4-1.4h7.8c0.8,0,1.6,0.4,1.6,1.4
		c0,1-0.7,1.4-1.6,1.4h-2.3v7.5c0,1.1-0.7,1.8-1.6,1.8c-0.9,0-1.6-0.7-1.6-1.8V125.4z"/>
	<path fill="#FFFFFF" d="M56.4,156.7c-0.9,0-1.6-0.7-1.6-1.8v-7.5h-4.2v7.5c0,1.1-0.7,1.8-1.6,1.8c-0.9,0-1.6-0.7-1.6-1.8v-8.5
		c0-1.1,0.7-1.8,1.6-1.8h7.4c0.9,0,1.6,0.7,1.6,1.8v8.5C58,156,57.3,156.7,56.4,156.7z"/>
	<path fill="#FFFFFF" d="M71,150.6c0,3.4-2.3,6.2-5.8,6.2c-3.5,0-5.8-2.9-5.8-6.2c0-3.3,2.4-6.3,5.8-6.3
		C68.6,144.3,71,147.3,71,150.6z M62.6,150.6c0,1.6,0.8,3.3,2.6,3.3c1.8,0,2.6-1.7,2.6-3.3c0-1.6-0.8-3.3-2.6-3.3
		C63.4,147.3,62.6,149,62.6,150.6z"/>
	<path fill="#FFFFFF" d="M78.2,148.6c0.8,0,1.3,0.6,1.3,1.4c0,0.8-0.4,1.4-1.3,1.4h-4.8c-0.8,0-1.3-0.6-1.3-1.4
		c0-0.8,0.4-1.4,1.3-1.4H78.2z"/>
	<path fill="#FFFFFF" d="M90.1,156.7c-0.9,0-1.6-0.7-1.6-1.8v-3.1h-4.2v3.1c0,1.1-0.7,1.8-1.6,1.8c-0.9,0-1.6-0.7-1.6-1.8v-8.6
		c0-1.1,0.7-1.8,1.6-1.8c0.9,0,1.6,0.7,1.6,1.8v2.7h4.2v-2.7c0-1.1,0.7-1.8,1.6-1.8c0.9,0,1.6,0.7,1.6,1.8v8.6
		C91.7,156,91.1,156.7,90.1,156.7z"/>
	<path fill="#FFFFFF" d="M97.7,156.8c-2.6,0-4.5-1.3-4.5-3.9c0-3.7,4.4-4.2,7.4-4.2v-0.9c0-0.6-0.5-0.9-1.4-0.9
		c-1.9,0-2.2,1.1-3.1,1.1c-1,0-1.4-0.7-1.4-1.4c0-1.3,2.6-2.4,4.5-2.4c3,0,4.7,1.3,4.7,3.6v7c0,0.9-0.6,1.7-1.6,1.7
		c-0.7,0-1.3-0.2-1.5-1.2C100.1,156.4,98.7,156.8,97.7,156.8z M98.2,154.1c1.7,0,2.4-0.9,2.4-2.4v-0.5c-2,0-4.4-0.2-4.4,1.8
		C96.3,153.8,97.3,154.1,98.2,154.1z"/>
	<path fill="#FFFFFF" d="M105.5,154.8v-8.5c0-1.1,0.7-1.8,1.6-1.8c0.9,0,1.6,0.7,1.6,1.8v7.5h3.3v-7.5c0-1.1,0.7-1.8,1.6-1.8
		c0.9,0,1.6,0.7,1.6,1.8v7.5h3.3v-7.5c0-1.1,0.7-1.8,1.6-1.8s1.6,0.7,1.6,1.8v8.5c0,1.1-0.7,1.8-1.6,1.8h-13
		C106.2,156.6,105.5,155.8,105.5,154.8z"/>
	<path fill="#FFFFFF" d="M126.1,151.7c0.2,1.6,1.6,2.3,3.1,2.3c1.7,0,2.8-1.3,3.7-1.3c0.7,0,1.3,0.7,1.3,1.4c0,1.4-2.9,2.7-5.3,2.7
		c-3.6,0-6.1-2.7-6.1-6.2c0-3.3,2.4-6.3,5.8-6.3c3.5,0,5.8,3.2,5.8,5.9c0,1-0.4,1.4-1.4,1.4H126.1z M131.2,149.5
		c-0.2-1.4-1.1-2.5-2.6-2.5c-1.4,0-2.4,1.1-2.6,2.5H131.2z"/>
	<path fill="#FFFFFF" d="M148.8,156.7c-1.1,0-1.6-0.7-1.7-1.4l-0.8-5.9h0l-1.8,6.2c-0.1,0.5-0.5,1.1-1.7,1.1c-1.1,0-1.5-0.7-1.7-1.1
		l-1.8-6.2h0l-0.8,5.9c-0.1,0.8-0.6,1.4-1.7,1.4c-0.9,0-1.5-0.7-1.5-1.6c0-0.1,0-0.2,0-0.3l1.6-8.9c0.1-0.7,0.9-1.4,2-1.4
		c1,0,1.8,0.7,2,1.3l1.9,5.9h0l1.8-5.9c0.2-0.6,1-1.3,2-1.3c1.1,0,1.9,0.8,2,1.4l1.6,8.9c0,0.1,0,0.2,0,0.3
		C150.3,156,149.7,156.7,148.8,156.7z"/>
	<path fill="#FFFFFF" d="M151,146.7c-0.1-0.2-0.2-0.5-0.2-0.8c0-0.8,0.9-1.4,1.5-1.4c0.8,0,1.3,0.4,1.6,1.1l2.2,6.1l2.4-6.1
		c0.3-0.7,0.8-1.1,1.6-1.1c0.7,0,1.5,0.6,1.5,1.4c0,0.3,0,0.6-0.2,0.8l-5.4,13.5c-0.3,0.7-0.8,1.3-1.5,1.3c-1.1,0-1.7-0.7-1.7-1.4
		c0-0.3,0.1-0.7,0.2-0.9l1.4-3.5L151,146.7z"/>
</g>
</svg>
